<svg id="Layer_1" data-name="Layer 1" xmlns="http://www.w3.org/2000/svg" width="506" height="505" viewBox="0 0 506 505"><path d="M173.5889,173.5889H4V4H173.5889ZM9,168.5889H168.5889V9H9Z"/><path d="M338.1772,173.5889H168.5889V4H338.1772Zm-164.5883-5H333.1772V9H173.5889Z"/><path d="M502.7656,173.5889H333.1772V4H502.7656Zm-164.5884-5H497.7656V9H338.1772Z"/><path d="M173.5889,338.1777H4V168.5889H173.5889ZM9,333.1777H168.5889V173.5889H9Z"/><path d="M338.1772,338.1777H168.5889V168.5889H338.1772Zm-164.5883-5H333.1772V173.5889H173.5889Z"/><path d="M502.7656,338.1777H333.1772V168.5889H502.7656Zm-164.5884-5H497.7656V173.5889H338.1772Z"/><path d="M173.5889,501.5H4V331.9111H173.5889ZM9,496.5H168.5889V336.9111H9Z"/><path d="M338.1772,501.5H168.5889V331.9111H338.1772Zm-164.5883-5H333.1772V336.9111H173.5889Z"/><path d="M502.7656,501.5H333.1772V331.9111H502.7656Zm-164.5884-5H497.7656V336.9111H338.1772Z"/><rect x="84.9786" y="2.1215" width="10.0003" height="169.8655" transform="translate(-35.2025 89.1219) rotate(-44.9999)"/><rect x="5.2092" y="82.3001" width="169.8658" height="10.0003" transform="translate(-35.3286 89.3097) rotate(-45)"/><path d="M86.2622,158.9966c-35.2192,0-63.8721-31.4927-63.8721-70.2022S51.043,18.5918,86.2622,18.5918s63.8721,31.4927,63.8721,70.2026S121.4814,158.9966,86.2622,158.9966Zm0-130.4048c-29.7051,0-53.8721,27.0068-53.8721,60.2026s24.167,60.2022,53.8721,60.2022,53.8721-27.0064,53.8721-60.2022S115.9673,28.5918,86.2622,28.5918Z"/><rect x="249.4842" y="3.8259" width="10.0003" height="169.8658" transform="translate(11.7748 205.9445) rotate(-45)"/><rect x="169.7151" y="84.005" width="169.8651" height="10.0003" transform="translate(11.6485 206.1321) rotate(-45)"/><rect x="415.3391" y="6.3583" width="10" height="169.8655" transform="translate(58.562 323.9632) rotate(-45)"/><rect x="335.5696" y="86.5374" width="169.8651" height="10" transform="translate(58.4356 324.1506) rotate(-45)"/><rect x="412.8071" y="169.681" width="9.9996" height="169.8651" transform="translate(-57.6657 370.0106) rotate(-45.0002)"/><rect x="333.0375" y="249.8598" width="169.8658" height="9.9996" transform="translate(-57.7843 370.2293) rotate(-45.004)"/><rect x="249.4844" y="167.1486" width="10" height="169.8655" transform="translate(-103.7116 253.782) rotate(-45.0002)"/><rect x="169.7148" y="247.3279" width="169.8658" height="10" transform="translate(-103.8381 253.993) rotate(-45.004)"/><rect x="83.6297" y="168.4149" width="10" height="169.8655" transform="translate(-153.1848 136.8744) rotate(-45)"/><rect x="3.8601" y="248.5938" width="169.8658" height="10" transform="translate(-153.319 137.0787) rotate(-45.004)"/><rect x="83.6298" y="333.0038" width="9.9996" height="169.8655" transform="translate(-269.5663 185.0807) rotate(-44.9999)"/><rect x="3.8601" y="413.1828" width="169.8658" height="9.9996" transform="translate(-269.709 185.2937) rotate(-45.004)"/><rect x="248.2185" y="333.0036" width="9.9996" height="169.8658" transform="translate(-221.3598 301.4631) rotate(-45)"/><rect x="168.4488" y="413.1828" width="169.8655" height="9.9996" transform="translate(-221.4941 301.6835) rotate(-45.004)"/><rect x="411.5414" y="336.8015" width="9.9993" height="169.8658" transform="translate(-176.2092 418.0633) rotate(-45.0001)"/><rect x="331.7712" y="416.9808" width="169.8658" height="9.9993" transform="translate(-176.3357 418.2905) rotate(-45.004)"/><path d="M253.3828,157.731c-35.2192,0-63.8721-31.4927-63.8721-70.2027s28.6529-70.2026,63.8721-70.2026,63.8726,31.4927,63.8726,70.2026S288.6021,157.731,253.3828,157.731Zm0-130.4053c-29.7051,0-53.8721,27.0068-53.8721,60.2026s24.167,60.2027,53.8721,60.2027,53.8726-27.0069,53.8726-60.2027S283.0884,27.3257,253.3828,27.3257Z"/><path d="M419.2373,160.2627c-35.2187,0-63.8716-31.4927-63.8716-70.2022s28.6529-70.2026,63.8716-70.2026S483.11,51.3506,483.11,90.0605,454.457,160.2627,419.2373,160.2627Zm0-130.4048c-29.7051,0-53.8716,27.0068-53.8716,60.2026s24.1665,60.2022,53.8716,60.2022S473.11,123.2563,473.11,90.0605,448.9434,29.8579,419.2373,29.8579Z"/><path d="M416.7061,323.5859c-35.2193,0-63.8726-31.4931-63.8726-70.2031s28.6533-70.2021,63.8726-70.2021,63.872,31.4926,63.872,70.2021S451.9248,323.5859,416.7061,323.5859Zm0-130.4052c-29.7056,0-53.8726,27.0063-53.8726,60.2021s24.167,60.2031,53.8726,60.2031,53.872-27.0068,53.872-60.2031S446.4111,193.1807,416.7061,193.1807Z"/><path d="M253.3828,319.7871c-35.2192,0-63.8721-31.4922-63.8721-70.2021s28.6529-70.2027,63.8721-70.2027,63.8726,31.4927,63.8726,70.2027S288.6021,319.7871,253.3828,319.7871Zm0-130.4048c-29.7051,0-53.8721,27.0069-53.8721,60.2027s24.167,60.2021,53.8721,60.2021,53.8726-27.0063,53.8726-60.2021S283.0884,189.3823,253.3828,189.3823Z"/><path d="M90.0605,323.5859c-35.2192,0-63.872-31.4931-63.872-70.2031s28.6528-70.2021,63.872-70.2021,63.8721,31.4926,63.8721,70.2021S125.28,323.5859,90.0605,323.5859Zm0-130.4052c-29.705,0-53.872,27.0063-53.872,60.2021s24.167,60.2031,53.872,60.2031,53.8721-27.0068,53.8721-60.2031S119.7656,193.1807,90.0605,193.1807Z"/><path d="M86.2622,488.1738c-35.2192,0-63.8721-31.4922-63.8721-70.2021S51.043,347.77,86.2622,347.77s63.8721,31.4922,63.8721,70.2022S121.4814,488.1738,86.2622,488.1738Zm0-130.4043c-29.7051,0-53.8721,27.0069-53.8721,60.2022s24.167,60.2021,53.8721,60.2021,53.8721-27.0068,53.8721-60.2021S115.9673,357.77,86.2622,357.77Z"/><path d="M252.1172,491.9727c-35.2193,0-63.8726-31.4932-63.8726-70.2032s28.6533-70.2021,63.8726-70.2021S315.9893,383.06,315.9893,421.77,287.3364,491.9727,252.1172,491.9727Zm0-130.4053c-29.7056,0-53.8726,27.0068-53.8726,60.2021s24.167,60.2032,53.8726,60.2032,53.8721-27.0069,53.8721-60.2032S281.8223,361.5674,252.1172,361.5674Z"/><path d="M416.7061,490.7061c-35.2193,0-63.8726-31.4922-63.8726-70.2022s28.6533-70.2021,63.8726-70.2021,63.872,31.4921,63.872,70.2021S451.9248,490.7061,416.7061,490.7061Zm0-130.4043c-29.7056,0-53.8726,27.0068-53.8726,60.2021s24.167,60.2022,53.8726,60.2022,53.872-27.0069,53.872-60.2022S446.4111,360.3018,416.7061,360.3018Z"/></svg>