<svg id="Layer_1" data-name="Layer 1" xmlns="http://www.w3.org/2000/svg" viewBox="0 0 498.77 497.5"><defs><style>.cls-1,.cls-2{fill:none;stroke:#000;stroke-miterlimit:10;}.cls-1{stroke-width:5px;}.cls-2{stroke-width:10px;}</style></defs><rect class="cls-1" x="2.5" y="2.5" width="164.59" height="164.59"/><rect class="cls-1" x="167.09" y="2.5" width="164.59" height="164.59"/><rect class="cls-1" x="331.68" y="2.5" width="164.59" height="164.59"/><rect class="cls-1" x="2.5" y="167.09" width="164.59" height="164.59"/><rect class="cls-1" x="167.09" y="167.09" width="164.59" height="164.59"/><rect class="cls-1" x="331.68" y="167.09" width="164.59" height="164.59"/><rect class="cls-1" x="2.5" y="330.41" width="164.59" height="164.59"/><rect class="cls-1" x="167.09" y="330.41" width="164.59" height="164.59"/><rect class="cls-1" x="331.68" y="330.41" width="164.59" height="164.59"/><line class="cls-2" x1="25.92" y1="23" x2="146.04" y2="143.11"/><line class="cls-2" x1="146.2" y1="23.24" x2="26.09" y2="143.36"/><ellipse class="cls-2" cx="82.26" cy="84.79" rx="58.87" ry="65.2"/><line class="cls-2" x1="190.43" y1="24.7" x2="310.54" y2="144.82"/><line class="cls-2" x1="310.7" y1="24.95" x2="190.59" y2="145.06"/><line class="cls-2" x1="356.28" y1="27.23" x2="476.4" y2="147.35"/><line class="cls-2" x1="476.56" y1="27.48" x2="356.45" y2="147.59"/><line class="cls-2" x1="353.75" y1="190.56" x2="473.86" y2="310.67"/><line class="cls-2" x1="474.03" y1="190.8" x2="353.91" y2="310.92"/><line class="cls-2" x1="190.43" y1="188.03" x2="310.54" y2="308.14"/><line class="cls-2" x1="310.7" y1="188.27" x2="190.59" y2="308.38"/><line class="cls-2" x1="24.57" y1="189.29" x2="144.69" y2="309.4"/><line class="cls-2" x1="144.85" y1="189.54" x2="24.74" y2="309.65"/><line class="cls-2" x1="24.57" y1="353.88" x2="144.69" y2="473.99"/><line class="cls-2" x1="144.85" y1="354.13" x2="24.74" y2="474.24"/><line class="cls-2" x1="189.16" y1="353.88" x2="309.27" y2="473.99"/><line class="cls-2" x1="309.44" y1="354.13" x2="189.33" y2="474.24"/><line class="cls-2" x1="352.48" y1="357.68" x2="472.6" y2="477.79"/><line class="cls-2" x1="472.76" y1="357.92" x2="352.65" y2="478.04"/><ellipse class="cls-2" cx="249.38" cy="83.53" rx="58.87" ry="65.2"/><ellipse class="cls-2" cx="415.24" cy="86.06" rx="58.87" ry="65.2"/><ellipse class="cls-2" cx="412.71" cy="249.38" rx="58.87" ry="65.2"/><ellipse class="cls-2" cx="249.38" cy="245.58" rx="58.87" ry="65.2"/><ellipse class="cls-2" cx="86.06" cy="249.38" rx="58.87" ry="65.2"/><ellipse class="cls-2" cx="82.26" cy="413.97" rx="58.87" ry="65.2"/><ellipse class="cls-2" cx="248.12" cy="417.77" rx="58.87" ry="65.2"/><ellipse class="cls-2" cx="412.71" cy="416.5" rx="58.87" ry="65.2"/></svg>